<svg width="29" height="30" viewBox="0 0 29 30" fill="none" xmlns="http://www.w3.org/2000/svg">
<path d="M14.312 0.826172C11.5088 0.826172 8.76863 1.65733 6.43789 3.21455C4.10715 4.77177 2.29056 6.98511 1.21784 9.57467C0.145116 12.1642 -0.135554 15.0137 0.411314 17.7628C0.958183 20.5118 2.30803 23.037 4.29016 25.019C6.27229 27.0009 8.79768 28.3507 11.547 28.8975C14.2963 29.4443 17.146 29.1637 19.7358 28.091C22.3255 27.0184 24.5391 25.202 26.0964 22.8714C27.6538 20.5409 28.485 17.8009 28.485 14.998C28.4852 13.1368 28.1188 11.2939 27.4067 9.57436C26.6945 7.85483 25.6505 6.29244 24.3344 4.97641C23.0183 3.66039 21.4557 2.61651 19.7361 1.9044C18.0164 1.19229 16.1733 0.825909 14.312 0.826172ZM14.312 27.9909C11.742 27.9909 9.22976 27.2289 7.09291 25.8012C4.95605 24.3735 3.29058 22.3443 2.30709 19.9702C1.32361 17.596 1.06628 14.9836 1.56766 12.4632C2.06904 9.94282 3.3066 7.6277 5.12384 5.81061C6.94108 3.99352 9.25639 2.75606 11.777 2.25473C14.2976 1.75339 16.9102 2.0107 19.2846 2.9941C21.6589 3.9775 23.6883 5.64284 25.1161 7.77951C26.5439 9.91619 27.306 12.4282 27.306 14.998C27.302 18.4427 25.9317 21.7452 23.4957 24.181C21.0598 26.6168 17.757 27.9869 14.312 27.9909Z" fill="#070707"/>
<path d="M14.312 14.9981H7.771V16.176H15.491V6.27686H14.312V14.9981Z" fill="#070707"/>
</svg>
