<svg width="51" height="28" viewBox="0 0 51 28" fill="none" xmlns="http://www.w3.org/2000/svg">
<path d="M36.955 1.17529V23.2024H21.308C21.2425 22.2097 20.8019 21.279 20.0756 20.5991C19.3492 19.9191 18.3915 19.5408 17.3965 19.5408C16.4015 19.5408 15.4438 19.9191 14.7174 20.5991C13.9911 21.279 13.5505 22.2097 13.485 23.2024H9.51601V1.17529H36.955Z" fill="black" stroke="white" stroke-linecap="round" stroke-linejoin="round"/>
<path d="M50.014 15.4277V23.202H47.401C47.3355 22.2093 46.8949 21.2786 46.1686 20.5986C45.4423 19.9187 44.4845 19.5403 43.4895 19.5403C42.4945 19.5403 41.5368 19.9187 40.8104 20.5986C40.0841 21.2786 39.6435 22.2093 39.578 23.202H36.954V7.65332H42.414L50.014 15.4277Z" fill="black" stroke="white" stroke-linecap="round" stroke-linejoin="round"/>
<path d="M50.014 15.4282V23.2026H47.401C47.3355 22.2098 46.8949 21.2791 46.1686 20.5992C45.4423 19.9192 44.4845 19.5409 43.4895 19.5409C42.4945 19.5409 41.5368 19.9192 40.8104 20.5992C40.0841 21.2791 39.6435 22.2098 39.578 23.2026H36.954V15.4282H50.014Z" fill="black" stroke="white" stroke-linecap="round" stroke-linejoin="round"/>
<path d="M17.388 27.0878C19.553 27.0878 21.308 25.3477 21.308 23.2011C21.308 21.0546 19.553 19.3145 17.388 19.3145C15.223 19.3145 13.468 21.0546 13.468 23.2011C13.468 25.3477 15.223 27.0878 17.388 27.0878Z" fill="black" stroke="white" stroke-linecap="round" stroke-linejoin="round"/>
<path d="M43.482 27.0878C45.647 27.0878 47.402 25.3477 47.402 23.2011C47.402 21.0546 45.647 19.3145 43.482 19.3145C41.3171 19.3145 39.562 21.0546 39.562 23.2011C39.562 25.3477 41.3171 27.0878 43.482 27.0878Z" fill="black" stroke="white" stroke-linecap="round" stroke-linejoin="round"/>
<path d="M1.41701 3.76709H5.64501" stroke="white" stroke-linecap="round" stroke-linejoin="round"/>
<path d="M1.41701 8.94971H5.64501" stroke="white" stroke-linecap="round" stroke-linejoin="round"/>
<path d="M1.41701 14.1323H5.64501" stroke="white" stroke-linecap="round" stroke-linejoin="round"/>
</svg>
