<svg width="31" height="33" viewBox="0 0 31 33" fill="none" xmlns="http://www.w3.org/2000/svg">
<path d="M25.14 23.0682C25.4713 23.0616 25.8005 23.1211 26.1085 23.2433C26.4165 23.3654 26.697 23.5478 26.9336 23.7797C27.1702 24.0116 27.3582 24.2884 27.4865 24.5938C27.6148 24.8993 27.6809 25.2272 27.6809 25.5585C27.6809 25.8898 27.6148 26.2178 27.4865 26.5232C27.3582 26.8287 27.1702 27.1054 26.9336 27.3373C26.697 27.5692 26.4165 27.7516 26.1085 27.8738C25.8005 27.9959 25.4713 28.0555 25.14 28.0488H23.471C24.1325 28.0488 24.767 28.3109 25.2356 28.7778C25.7042 29.2447 25.9686 29.8782 25.971 30.5396C25.971 31.9165 24.849 32.1995 23.471 32.1995H12.62C7.86103 32.1995 6.77703 31.3695 0.935028 30.5396V16.4268C5.02503 16.4268 11.786 8.95541 11.786 2.31397C11.786 -0.310813 15.44 -1.28573 16.794 3.50787C17.629 6.46462 15.125 12.2761 15.125 12.2761H28.479C29.1405 12.2761 29.775 12.5383 30.2436 13.0051C30.7122 13.472 30.9766 14.1055 30.979 14.7669C30.979 16.1438 29.857 18.0877 28.479 18.0877H26.81C27.1413 18.081 27.4705 18.1405 27.7785 18.2627C28.0865 18.3849 28.367 18.5672 28.6036 18.7991C28.8402 19.031 29.0282 19.3078 29.1565 19.6132C29.2848 19.9187 29.3509 20.2466 29.3509 20.5779C29.3509 20.9092 29.2848 21.2372 29.1565 21.5426C29.0282 21.8481 28.8402 22.1248 28.6036 22.3568C28.367 22.5887 28.0865 22.771 27.7785 22.8932C27.4705 23.0154 27.1413 23.0749 26.81 23.0682H25.14Z" fill="#0B0A0A"/>
</svg>
